/* XPM */
static char *result[] = {
/* columns rows colors chars-per-pixel */
"32 32 5 1 ",
"  c #130806",
". c #40342D",
"X c #614C4C",
"o c #A57B5F",
"O c #E3C396",
/* pixels */
"................................",
"..............     .............",
".............. oOO  ............",
".............. oOOOO ...........",
".............. oOOOOO ..........",
"......      .. oOOOOO  .........",
"..... OOOOoX   oOOOOOOX ........",
"..... OOOOOOOooOOOOOOOO .  .....",
"..... OOOOOOOOOOOOOOOOOO  ......",
"..... OOOOOOOOOOOOOOOOOO .......",
"   .. oOOOOOOOOOOOOXOOoO .......",
" Oo . XOOOOOOOOOOOOOOO O   .....",
" OO .. OOOOOOOOXOOo   oO .......",
" oOo . oOOOOOOOOOo OOOOO .......",
"  oO  . OOOOOOOOO OOOOOX .......",
". oOOo . OOoOOOO oOOOOo ........",
".. oOO   oOO    oOOOOO o .......",
"... oOOo  oOOOOOOOOOo XoO ......",
"...  oo OO  oooooo   XoOOO .....",
"....   OOO oXX     XXXOOOOO ....",
"......  O OOoooXXXXXoOOOOOOO  ..",
"....... OOOOOOOOOOOOOOOoooOOO  .",
"....... OOOOOOOOOOOOOOO   ooOOo ",
"....... OOOooOOOOOoOOOO .   OOO ",
"...... oOOO        oOOO ....    ",
"...... OOO  ......  OOOo .......",
".....  OO  ......... OOO .......",
"..... oO  ..........  OOO ......",
"..... oo ............. OO ......",
"......  ...............  .......",
"................................",
"................................"
};
