/* XPM */
static char *result[] = {
/* columns rows colors chars-per-pixel */
"32 32 6 1 ",
"  c #4D2700",
". c #40342D",
"X c #9D5B00",
"o c #F8B500",
"O c #FFEC71",
"+ c white",
/* pixels */
"................................",
"................................",
"................................",
"........XXXXX...................",
"......XXOOOOOXX.................",
".....XOOXXXXoOOX................",
"....XOXXoooOOooOX...............",
"....XOXooOOOOOO+X...............",
"....XOXoOOOOOOO+X...............",
".... oOOOOOOO++o ...............",
".... ooXOOOOOXXo ...............",
"....X oXoXXXXXX  ...............",
"...X o  oXXXX  o ..XXXXXX.......",
"...X ooX     XXo . OOOOOOXXX....",
"...XO oXoXXXXXX .. OOooooO++XX..",
"... oO  oXXXX   X. ooOOOOooo+OX.",
"... ooXO     Xo X. ooXoXOOOOOO .",
".... oXoXXXXXX oX    XoXXXXXXo .",
"....   oXXXX  o XOOXX   XXXXXo .",
".... oo     oX XOXXooooo      ..",
"..... oXoXXXXX XOXooOOOooooX....",
"......  oXXXX  XOXoOOOOOOoOX....",
"........     .. oOOOOOOOOOo ....",
"............... ooXOO++OXXo ....",
"................ oXoXXXXXX .....",
".................  oXXXX  ......",
"...................     ........",
"................................",
"................................",
"................................",
"................................",
"................................"
};
