/* XPM */
static char *result[] = {
/* columns rows colors chars-per-pixel */
"32 32 13 1 ",
"  c #2D0C02",
". c #462B05",
"X c #40342D",
"o c #007E3F",
"O c #AE0536",
"+ c #FF153D",
"@ c #8D5B0A",
"# c #00C51E",
"$ c #E7B420",
"% c #FFEB79",
"& c #023BB5",
"* c #0078FF",
"= c white",
/* pixels */
"XXXXXXXXXXXXXXXXXXXXXXXXXXXXXXXX",
"XXXXXXXXXXXXXXXXXXXXXXXXXXXXXXXX",
"XXXXXXXXXXXXXXXXXXXXXXXXXXXXXXXX",
"XXXXXXXXXXXXXXXXXXXXXXXXXXXXXXXX",
"XXXXXXXXXXXXXXXXXXXXXXXXXXXXXXXX",
"XXXXXXXXX   XX....XX   XXXXXXXXX",
"XXXXXXXX $$$ .%%%$. $$@ XXXXXXXX",
"XXX...XX $$@ .%@@$. $$@ XX...XXX",
"XX.%%$.X @$@ .$@@@. @@@ X.%%$.XX",
"XX.%@@.XX $ XX.%@.XX @ XX.$@$.XX",
"XX.$@@.XX $ XX.%@.XX @ XX.@@$.XX",
"XXX.@.XX $@@ X.%@.X $@@ XX.$.XXX",
"XXX.@.XX $@@ .%$$@. $@@ XX.$.XXX",
"XXX.@$. $@@@@.%$$$.$@@@@ .$$.XXX",
"XXX.@$@.@@@..%$$$$@..@@@.%@$.XXX",
"XXX.%$@@...%%$$$$$$$@...%@@%.XXX",
"XX.##%$@$%%$$$$%%$$$$%%%@@%#o.XX",
"XX.=#%$@@@@$$$%++@$$$@$@@@%=o.XX",
"XX.#o%$@%%%$$%+=O+@$$%%$@@%#o.XX",
"XX.oo$$%*=&@$%=+O+@$%*=&.@$oo.XX",
"XXX..@$%=*&@$%OOO+@$%*&*.@$..XXX",
"XXXX.@$$&&*.$%OOO+@$$&&&.@$.XXXX",
"XXXX.@$@...@$$%O+@$$@...@@$.XXXX",
"XXXXX.@$@@@@$$$@@$$$@$@@@$.XXXXX",
"XXXXXX...@@@$$$$$$$$@$@...XXXXXX",
"XXXXXXXXX....$$$$$$....XXXXXXXXX",
"XXXXXXXXXXXXX......XXXXXXXXXXXXX",
"XXXXXXXXXXXXXXXXXXXXXXXXXXXXXXXX",
"XXXXXXXXXXXXXXXXXXXXXXXXXXXXXXXX",
"XXXXXXXXXXXXXXXXXXXXXXXXXXXXXXXX",
"XXXXXXXXXXXXXXXXXXXXXXXXXXXXXXXX",
"XXXXXXXXXXXXXXXXXXXXXXXXXXXXXXXX"
};
