/* XPM */
static char *_d0ac1d9b47d4632c32feeae5bc03eaacEx5r7gaiBHuztUd[] = {
/* columns rows colors chars-per-pixel */
"32 32 8 1 ",
"  c None",
". c #130806",
"X c #360404",
"o c #704A2D",
"O c #5F1347",
"+ c #A13A8B",
"@ c #BC74C4",
"# c #D0ADE0",
/* pixels */
"                                ",
"                                ",
"                                ",
"                                ",
"                                ",
"         ....   ....            ",
"        ..@@+...+@@+.           ",
"        .@o.@+++@o.@+.          ",
"       .+@..@@@@@..@@+.         ",
"      .O@@@@@@@@@@@@@@.         ",
"     ..@@+@+@@@@@@##@@+X        ",
"     .+@@@@@@@@@+@##@@+.        ",
"     .O+++++++OO+@@@@@+.        ",
"     .+@@@@@@@@@+@@@@@+.        ",
"     ..+@@@@@@@@@@@@@++.        ",
"      ..+@@@@@@@@@@@++O.        ",
"        .++@@@@@@@@++O...       ",
"        ...O+++++++O...OO.      ",
"       .@+..OO...OOOOOO+++.     ",
"      .@@+.+OOOOOOO+.O+@@+.     ",
"      .++O.@.O++OO.@..+@@++.    ",
"      ..OO.@.OO++O.@..++++O.    ",
"       ....@.OOOOO.@.X.++O..    ",
"       .OO.@..OOOO.@.X.OO..     ",
"      .O+O.@.......@.X.+O+.     ",
"      ....@++.   .@++.....      ",
"          .@.     .@.           ",
"           .       .            ",
"                                ",
"                                ",
"                                ",
"                                "
};
