/* XPM */
static char *d7eb153943a94f6ec29f2c3ac658bd7fT1rgoux47lm2Yf1t[] = {
/* columns rows colors chars-per-pixel */
"32 32 12 1 ",
"  c None",
". c #130806",
"X c #141F1F",
"o c #21110C",
"O c #442B1D",
"+ c #1A4D28",
"@ c #704A2D",
"# c #324949",
"$ c #A3581B",
"% c #569C44",
"& c #BF8637",
"* c #96BA61",
/* pixels */
"      ooooooooo                 ",
"    oo&&&&&&&&$oo..             ",
"    o&&&&&&&&&&&$o#...          ",
"   o&&&&&&&&&&&&&&o##X..        ",
"  oo&$OOOO@@$OoO&&&o##XX..      ",
"  o&&OOooO@@O+%%o&$o###XX.      ",
"  o&@O+%%o@@O*o%o&@@o####X..    ",
"  o&@O*o%o@@O+*%o&@@o####XX.    ",
"  o&&O+*%o&&OOooO&@@o#####XX.   ",
"  o@&OOooO&&OOOOO&&@o######X..  ",
"   o&&OOO&@&&O&&&&&$o#######X.  ",
"   o@@@OO&@@&OO@@@@oo#######X.  ",
"   .o.OO&&&&&&.OOOOo########X.. ",
"  .##..$&@&&@&o....#########XX. ",
"  .###.@@@@@@@@.XXX##########X. ",
"  .###.@@O@@O@O.XX###########X. ",
"  .###.........##############X. ",
"  .####XXXXXXXX##############X. ",
"  .######XXXXX###X###########X. ",
" .###############X##########XX. ",
" .#######XX######X##########XX. ",
" .#######XX#######X#####X###XX. ",
" .#######XX######XX#####X###XX. ",
" .##.####XX#####X.X#####X###XX. ",
" ....#.XXXX#####X.X#####XXX#X.. ",
"    .........#XXX.XXXXXXX....   ",
"          ....... .......O.     ",
"          ..O..        .OO.     ",
"         ..OOO.      ..O@@@.    ",
"      ...OOOOO.  ....O@@@@..    ",
"     .OOOOOOOOO..O.O@O@@@@O.    ",
"     .......................    "
};
