/* XPM */
static char *_b67f5fa04cf4d6287db0cf21255fa38Ic1XuNXoaVIlG6ux[] = {
/* columns rows colors chars-per-pixel */
"32 32 11 1 ",
"  c None",
". c #130806",
"X c #141F1F",
"o c #631111",
"O c #1A4D28",
"+ c #9E2E2E",
"@ c #DF5353",
"# c #569C44",
"$ c #BF8637",
"% c #96BA61",
"& c #EFD77A",
/* pixels */
"                                ",
"               ...              ",
"            ...##O...           ",
"           .########O..         ",
"         ..###%%######O.        ",
"        ..###%%%%######O.       ",
"        .###%%%%########.       ",
"       X#O###%%#########O.      ",
"       X#.##########O####.      ",
"      .##$##########.####.      ",
"      .O.&.########O.O###O.     ",
"     ...$&.########.$.###O.     ",
"   ..$&&&&$.#####O.&&.O##O.     ",
"     .$&&&&$.#O.$&&&&&..#O.     ",
"     ...&$..####..&&&&&$.O.     ",
"     .#.&..######..&$..OOO.     ",
"     .#.$.########.&.####O.     ",
"     .#O.O########.$O####O.     ",
"     .##O#########..#####.      ",
"     .############O######.      ",
"     .##################O.      ",
"      .####....O########O.      ",
"      .###Oo++++.######O.       ",
"       .#Oo++++++O####O.        ",
"       .#O+++@@@@+X#OO.         ",
"        .O++@@@@@@XO...         ",
"         ..+@@@@@@..XX.         ",
"          ..++@...XOOO.         ",
"             .@.OOOOOO..        ",
"             ...OOO#OOO.        ",
"            ..######OOOO..      ",
"           ..#########OOOO.     "
};
