/* XPM */
static char *_28f706739374891de1f65cbe94ab798BRun1hvZf5WhYi1u[] = {
/* columns rows colors chars-per-pixel */
"32 32 4 1 ",
"  c #221C1A",
". c #423934",
"X c #5A4E44",
"o c #796755",
/* pixels */
"XXXoo  ..XXXXoooo..  XXXXoo  ..X",
"XXXoo  ..XXXXoooo..  XXXXoo  ..X",
".XX..  ....XXXXoo..  ..XXXXoo  .",
".XX..  ....XXXXoo..  ..XXXXoo  .",
" ......  ..XXXXoo..  ....XXXXoo ",
" ......  ..XXXXoo..  ....XXXXoo ",
".        ....XXXX..    ......  .",
".        ....XXXX..    ......  .",
"Xoo......  ....XX....oo  ..  ..X",
"Xoo......  ....XX....oo  ..  ..X",
"XXXooXX..    ....  XXXXoo  ..XXX",
"XXXooXX..    ....  XXXXoo  ..XXX",
"XXXXX..  ....      XXXXXXoo  XXX",
"XXXXX..  ....      XXXXXXoo  XXX",
"...    ..XXXXXXoo  XXXXXX....  .",
"...    ..XXXXXXoo  XXXXXX....  .",
" ..  ..XXXXXXXXoo  XXXXXX..  .. ",
" ..  ..XXXXXXXXoo  XXXXXX..  .. ",
".    ..XXXXXXXXoo  XXXXoo  .....",
".    ..XXXXXXXXoo  XXXXoo  .....",
"o..  ..XXXXXXXXoo        ..XXXXo",
".oo....  ..........XX      ..  .",
".oo....  ..........XX      ..  .",
"XXXoo  ..XXoooo....  XXXXoo  ..X",
"XXXoo  ..XXoooo....  XXXXoo  ..X",
"XXXoo  ..XXXXoooo..  XXXXoo  ..X",
"XXXoo  ..XXXXoooo..  XXXXoo  ..X",
".XX..  ....XXXXoo..  ..XXXXoo  .",
".XX..  ....XXXXoo..  ..XXXXoo  .",
" ......  ..XXXXoo..  ....XXXXoo ",
" ......  ..XXXXoo..  ....XXXXoo ",
".        ....XXXX..    ......  ."
};
