/* XPM */
static char *floor1709127689[] = {
/* columns rows colors chars-per-pixel */
"32 32 126 2 ",
"   c #17A067",
".  c #1FA36D",
"X  c #65BC99",
"o  c #71C0A1",
"O  c #70C0A0",
"+  c #27A672",
"@  c #66BC9A",
"#  c #6CBF9D",
"$  c #6FC0A0",
"%  c #6FC09F",
"&  c #6DBF9E",
"*  c #4CB488",
"=  c #48B385",
"-  c #69BE9B",
";  c #71C0A0",
":  c #4AB386",
">  c #46B284",
",  c #73C1A2",
"<  c #74C1A2",
"1  c #72C1A1",
"2  c #74C1A3",
"3  c #6ABE9C",
"4  c #69BE9C",
"5  c #90CBB5",
"6  c #99CEBB",
"7  c #7BC4A7",
"8  c #87C8AF",
"9  c #9BCEBC",
"0  c #84C7AD",
"q  c #6CBE9D",
"w  c #6BBE9D",
"e  c #93CCB7",
"r  c #9DCFBE",
"t  c #7CC4A8",
"y  c #89C8B1",
"u  c #9FD0C0",
"i  c #86C7AE",
"p  c #98CDBB",
"a  c #94CCB8",
"s  c #75C2A3",
"d  c #32AA79",
"f  c #29A673",
"g  c #62BB97",
"h  c #76C2A4",
"j  c #78C3A5",
"k  c #8DCAB3",
"l  c #78C3A6",
"z  c #9FD0BF",
"x  c #9ACEBC",
"c  c #1EA26C",
"v  c #60BA96",
"b  c #91CBB6",
"n  c #7EC5A9",
"m  c #79C3A6",
"M  c #6EBF9F",
"N  c #51B68B",
"B  c #4BB487",
"V  c #68BD9B",
"C  c #59B891",
"Z  c #49B386",
"A  c #60BB95",
"S  c #6EBF9E",
"D  c #42B181",
"F  c #66BD99",
"G  c #53B68D",
"H  c #3FB07F",
"J  c #5CB993",
"K  c #67BD9A",
"L  c #64BC98",
"P  c #8ECAB4",
"I  c #92CBB7",
"U  c #77C2A4",
"Y  c #55B78E",
"T  c #95CCB9",
"R  c #40B080",
"E  c #8FCAB5",
"W  c #A2D1C1",
"Q  c #83C6AD",
"!  c #7BC4A8",
"~  c #7DC4A9",
"^  c #63BC97",
"/  c #42AF83",
"(  c #30A977",
")  c #5DB994",
"_  c #159F66",
"`  c #55B68F",
"'  c #5AB991",
"]  c #4EB589",
"[  c #4FB58A",
"{  c #3EAF7E",
"}  c #5EBA94",
"|  c #89C8B0",
" . c #82C6AC",
".. c #7FC5AA",
"X. c #96CDB9",
"o. c #A1D0C1",
"O. c #7DC4A8",
"+. c #8BC9B2",
"@. c #A3D1C2",
"#. c #87C8B0",
"$. c #8CC9B3",
"%. c #81C6AC",
"&. c #86C7AF",
"*. c #4CB389",
"=. c #36AB7B",
"-. c #5AB892",
";. c #7AC3A6",
":. c #129E64",
">. c #4DB38A",
",. c #81C6AB",
"<. c #72C1A2",
"1. c #63BB98",
"2. c #5FBA95",
"3. c #47B285",
"4. c #3FB080",
"5. c #52B68C",
"6. c #3DAF7E",
"7. c #5BB992",
"8. c #85C7AE",
"9. c #88C8B0",
"0. c #80C5AB",
"q. c #8AC9B1",
"w. c #7AC3A7",
"e. c #56B78F",
"r. c #59B890",
"t. c white",
/* pixels */
"  . X o O O O O O O O O O O O O O O O O O O O O O O O O O O O O ",
". + @ O # # $ O O O O O O O O O O O O O O O O O O O O O O O O O ",
"X @ % & * = - ; O O O O O O O O O O O O O O O O O O O O O O O O ",
"; ; O & : > - ; O O O O , < o O O O O O O O O O O O O O 1 2 1 O ",
"O O O $ 3 4 % O O O O o 5 6 7 $ O O O O O O O O O O O $ 8 9 0 % ",
", , O O O O q w % O O o e r t $ 1 , o O O O O O O O O % y u i % ",
"p a s O O w d f g o O O h j 1 O k 6 t $ O O O O O O O O 2 l 2 O ",
"z x h O O w f c v o O O O $ O O b z n % O O O O O O O O O $ O O ",
"m j o O O % g v & O O O O O O O h m , O O O O O O O O O O O O O ",
"$ $ O O O O o o % M O O O O O O O $ O O O O O O % M $ O O O O O ",
"O O O O O O O M N B V ; O O O O O O O O O O O O C Z A o O O O O ",
"O O O O O O O S Z D F ; O O O O O O O O O O O ; G H J o O O O O ",
"O O O O O O O $ K X S O O O O O O O O O O O O O - L w O O O O O ",
"O O O O O O ; o o ; O O $ % O O O O O O O O ; o o o O O O O O O ",
"O O O O O 1 P I U O O % Y * K ; O O O O O O 8 T n $ O O O O O O ",
"O O O O O , p z m $ O % B R L o $ % O O O O E W Q % O O O O O O ",
"O O O O O o ! ~ , O O O F ^ & O / ( ) o O O m n s O O O O O O O ",
"O O O O O O $ % O O O O ; o O % ( _ ` 1 O O $ % O O O O O O O O ",
"O O O O O O O O O O O O O O O O ) ` V ; ' ] L ; O O O O O O O O ",
"O O O O O O O O O O O O O O O O o 1 O O [ { } o O O O O O O O O ",
"O O O O O O O O O O O o | 5 j $ O O O O X A 3 O O O O $  .b ..$ ",
"O O O O O O O O O O O o X.o.O.% O O O O ; o ; ; O O O % +.@.#.% ",
"E $.2 O O O O O O O O O ~ %.2 O &.E m $ O O *.=.-.o O O ;. .j O ",
"W r h O O O O O O O O O $ % O O a W ..% O ; =.:.>.1 O O $ % O O ",
"Q ,.<.O O O O O O O O O O O O O ~ Q h O O O -.>.1.; O O O O O O ",
"% % O O O O O O ; ; O O O O O O $ % O O O O o 1 o ; O O O O O O ",
"O O O O O O O % C Y 3 O O O O O O O O O O O O O 2.G L ; O O O O ",
"O O O O O O O S 3.4.F ; O O O O O O O O O O O ; 5.6.7.o O O O O ",
"O O O O O O O % } 7.# O O O O O O O O O O O O O ^ ' K O O O O O ",
"O O O O O O $ % ; o O O O O O O O O O O O O $ % O o O O O o O O ",
"O O O O O 1 8.9.s O O O O O O O O O O O O O 0.q.w.$ O O g e.L ; ",
"O O O O O , 6 u m $ O O O O O O O O O O O O E @.Q % O o Y 6.r.o "
};
