/* XPM */
static char *pokeball1709127072[] = {
/* columns rows colors chars-per-pixel */
"32 32 164 2 ",
"   c #010400",
".  c #0A0200",
"X  c #020A00",
"o  c #0F0E00",
"O  c #140100",
"+  c #190000",
"@  c #100A00",
"#  c #1E0A00",
"$  c #001401",
"%  c #0C1301",
"&  c #001A05",
"*  c #220102",
"=  c #2C0200",
"-  c #230900",
";  c #3A0000",
":  c #00220B",
">  c #440100",
",  c #4B0000",
"<  c #BB383E",
"1  c #CD3A32",
"2  c #C93B39",
"3  c #D53C3F",
"4  c #BC453F",
"5  c #B64B3B",
"6  c #C14B3D",
"7  c #AF3E40",
"8  c #D53F48",
"9  c #DC3F48",
"0  c #9A524D",
"q  c #805A59",
"w  c #965D56",
"e  c #9F5C56",
"r  c #9E5659",
"t  c #95595B",
"y  c #995C5B",
"u  c #A64B48",
"i  c #AC4C4D",
"p  c #BA4646",
"a  c #BD4B41",
"s  c #B94649",
"d  c #B84F4C",
"f  c #B44D44",
"g  c #A2524F",
"h  c #A65753",
"j  c #AD5152",
"k  c #B35555",
"l  c #83665E",
"z  c #896358",
"x  c #946053",
"c  c #976358",
"v  c #A9665E",
"b  c #886C60",
"n  c #CA4642",
"m  c #C84845",
"M  c #C84249",
"N  c #C14B4D",
"B  c #C34342",
"V  c #DF4742",
"C  c #D3484D",
"Z  c #D34245",
"A  c #D04D53",
"S  c #E14344",
"D  c #299267",
"F  c #209E6E",
"G  c #249F70",
"H  c #2D9E72",
"J  c #349D72",
"K  c #18A26E",
"L  c #39A277",
"P  c #3CA57A",
"I  c #43A57C",
"U  c #7E9F8A",
"Y  c #4CAA85",
"T  c #54A986",
"R  c #54AE8A",
"E  c #5BAD8B",
"W  c #4EB087",
"Q  c #4DB288",
"!  c #54B28C",
"~  c #5DB18D",
"^  c #5CB592",
"/  c #5BBB94",
"(  c #5EBC98",
")  c #73AE90",
"_  c #7CAD91",
"`  c #63B594",
"'  c #63BB97",
"]  c #6EBA96",
"[  c #65BC9A",
"{  c #6DBE9D",
"}  c #7CB395",
"|  c #75B698",
" . c #7BB69A",
".. c #73BD9E",
"X. c #7BBB9D",
"o. c #73B494",
"O. c #6EBEA1",
"+. c #73BEA1",
"@. c #7BBDA1",
"#. c #65C097",
"$. c #65C29C",
"%. c #6CC19E",
"&. c #68CB9F",
"*. c #71C19E",
"=. c #7AC09E",
"-. c #65C5A0",
";. c #6DC3A1",
":. c #6DC8A7",
">. c #72C1A2",
",. c #7AC3A4",
"<. c #73C8A7",
"1. c #7BC5A8",
"2. c #76CBAA",
"3. c #7FCAAC",
"4. c #8BAE8E",
"5. c #82AB8B",
"6. c #8AA793",
"7. c #8BAC94",
"8. c #83AD95",
"9. c #98AE97",
"0. c #97AE9C",
"q. c #92AC93",
"w. c #85B094",
"e. c #80B69C",
"r. c #8BB39D",
"t. c #82B99B",
"y. c #89BC9C",
"u. c #93B09E",
"i. c #84BDA3",
"p. c #8CBEA3",
"a. c #82C5A4",
"s. c #85C8A7",
"d. c #83C4A9",
"f. c #8AC5AB",
"g. c #83C9AD",
"h. c #89CAAE",
"j. c #94C1AA",
"k. c #94CFAF",
"l. c #9DC9AE",
"z. c #84CDB2",
"x. c #8CCCB2",
"c. c #93CCB4",
"v. c #98CCB7",
"b. c #8AD1B5",
"n. c #92D0B6",
"m. c #9AD1B5",
"M. c #94D2B9",
"N. c #A5CEBE",
"B. c #ACD3B8",
"V. c #92DDC0",
"C. c #9ADBC2",
"Z. c #FFCDC4",
"A. c #FFEFE7",
"S. c #EDF8EA",
"D. c #FFF1E6",
"F. c #F0F3E8",
"G. c #FDF4EB",
"H. c #F2F8EC",
"J. c #FCF8EF",
"K. c #ECFFF3",
"L. c #F3FEF4",
"P. c #FEFEF6",
"I. c #F5FFF8",
"U. c #F9FFF8",
/* pixels */
"K G #.;.$.%.*...O.+.+.+.O.O.#.$.$.;.;.*.X...=.*.] *...*.%.;.;.O.",
"F H [ >.$.$.>.*.O.+.+.O.+.:.%.%.%.%.%.>...*.*.] *.*...*.;.%.:.>.",
"-.' X.| R Q $.%.O.+.+.O.O.O.{ ..{ ;.>.*.%.%.%.%.*.] *.*.+...{ { ",
"-.{ X.| R Q $.;.O.+.O.+.,.+.@.@.{ >.+.*.>.$.%.%.*.*.....@.1.+.{ ",
"$.;.>.,.' ' %.{ +.O.[ :.x.M.d.X.{ +.@...%.$.%.%.{ ....@.p.v.x.@.",
":.>.%.$.%.*.%.%.;.{ -.-.z.n.d.X.@.1.X...>.>.$.%.%.;.+.@.f.M.g.@.",
"v.c.,.%.$.( L L ' O.:.:.:.<...X.h.b.a...,.X.{ <.;.;...+.>.1.>...",
"N.v.,.{ &.#.J J ( O.;.[ -.;...X.k.m.s.| ....{ >.;.{ { >.;.$.O.+.",
"i.@.+.:.%.%.#./ { *.%.{ ,.o.t.y.y.y.a.] *.*.%.>.;.O.+.+.O.-.*.{ ",
"@.+.+.O.%.{ %.%.>.{ *...w.9.%   % X 4.y.=.*.%.%.O.{ O.>.;.O...%.",
"+.+.{ %.{ +.O.;.~ I ` p.@ = e g g v =   4.t.] $.^ ! ` ;.>.%.%.$.",
"+.{ %.;...X.+.O.! E t.X q h f A M N k c % 5.a.%.! W ^ O.+...%.%.",
"@...%.*.X.X.O.O.` _ X b x Z.B 3 Z 9 < k * % _ =.[ ( O.+.@.@.@.{ ",
"X...%.%.X.@.>.,.,.r.- w Z.f 2 S 3 Z C s 0 - q.X.:.-.O.+.X.@.+.{ ",
"..*.%.%.;.>.z.x.i.$ l 0 d n S 1 6 5 a N i w o l.,.O.+.@...+.;.$.",
"..*.%.$.$.<.x.C.p.$ O ; j p m a , > , u j y . B.d.+.{ @.+.{ -.;.",
"{ %.;.;.%.;.>.d.i.&   O = t r ; D.G.D.= y q % p.X.%.*.*.*.{ ;.;.",
"{ ;.;.;.;.>.>.@. .& 0.H.P.+ * O G.P.P.O * O & t.=.*.%.%.>.*.>.O.",
";.O.;.>.>.*...X. .r.X I.P.P.O O P.P.G.. P.  w.=...*.#.%.+.@.O.O.",
"+.+.+.+.{ { *.+.X.i.& 0.L.F.P.J.    . P.F.& ) =.] %.$.*.@.@.+.;.",
"X.@.+.....{ >.>.| X.p.$ 6.L.I.I.L.U.U.L.& } *.#.%.;.;.O.d.x.1.O.",
"@.+.@.+.>.{ { ..>... .i.: $ U 6.K.K.X & } ..$.&.$.%.[ ..x.M.3.>.",
"x.g.+.+.>.{ ..{ >.[ @.X.X.j.: & $ : j.i.X.*.W P / $.....d.h.,.O.",
"C.x.1.+...*.;.%.{ >...] ,.| a. .m.m.f.| ..*.I D Q %.>.X.+...O.>.",
"g.1.>.+...{ ;.%.%.{ { >.......X.a.a.,.*.%.{ ( ! $.&.>.....>.>...",
"+.+.+.+.;.;.%.;.%.{ ;.>.......+.;.%.*.%.;.;.;.[ $.%.>.>...%.;...",
"{ O.{ { { ;.%.{ ` ` [ O.....>.*.%.$.%...O.;.+.>.` ^ [ ;.;.{ %.>.",
">.+.;.O.{ ..%.{ E E ` +.O.{ >.%.&.$.+...%.%.+.+.E R ^ { %.%.%.;.",
">...*.{ >.;.+.O.` ` { >.>.O.+.%.%.$.....;.;.X.@.' ` [ ;.;.;.$.%.",
"{ O.{ ..+.+.+.+.>.+.+.>.{ { ;.%.%.......{ ;.@.+.>.O.;.>.%.{ %.%.",
"*.>.+...+.>.1.g.1.+.>.{ { ;.;.>.....+.>.O.O.1.z.<.;.+.+.' / ] *.",
"..+.+.....,.b.V.>.+...>.O.{ ;.{ X.X.,...{ O.z.V.2.O.+.{ ^ Y ~ *."
};
